<svg width="134" height="65" viewBox="0 0 134 65" fill="none" xmlns="http://www.w3.org/2000/svg">
<path d="M43.992 32.6H41.752V46.32C41.752 47.608 40.94 48.28 39.792 48.28C39.26 48.28 38.672 48.112 38.112 47.776V32.6H35.872C35.004 32.6 34.752 32.852 34.752 33.44H34.192C32.652 33.44 31.672 32.88 31.672 31.284C31.672 29.8 32.764 28.96 34.976 28.96H44.888C47.1 28.96 48.192 29.8 48.192 31.284C48.192 32.88 47.212 33.44 45.672 33.44H45.112C45.112 32.852 44.86 32.6 43.992 32.6ZM47.5587 46.32C47.5587 45.228 48.2307 44.36 49.5187 44.36C50.8067 44.36 51.4787 45.228 51.4787 46.32C51.4787 47.412 50.8067 48.28 49.5187 48.28C48.2307 48.28 47.5587 47.412 47.5587 46.32ZM71.4561 48.28C69.6081 48.28 68.5161 47.188 68.5161 44.612V35.82L65.6601 41.14C64.9601 42.428 64.1481 42.96 63.0001 42.96C62.5521 42.96 62.1041 42.848 61.6001 42.68L57.8761 35.792V44.612C57.8761 47.188 56.7841 48.28 54.9361 48.28C53.5081 48.28 52.5561 47.664 52.5561 46.46C52.5561 46.096 52.6681 45.676 52.8921 45.2C53.8721 45.2 54.2361 44.892 54.2361 43.828V31.06C54.2361 29.156 55.2161 28.68 56.3361 28.68C56.9521 28.68 57.7081 28.82 58.1561 28.988L63.1961 38.368L67.4241 30.556C68.2081 29.1 69.3001 28.68 70.5041 28.68C71.1201 28.68 71.7081 28.82 72.1561 29.044V43.828C72.1561 44.892 72.5201 45.2 73.5001 45.2C73.7241 45.676 73.8361 46.096 73.8361 46.46C73.8361 47.664 72.8841 48.28 71.4561 48.28ZM74.9025 41C74.9025 36.968 77.6185 33.72 82.1825 33.72C86.7465 33.72 89.4625 36.968 89.4625 41C89.4625 45.032 86.7465 48.28 82.1825 48.28C77.6185 48.28 74.9025 45.032 74.9025 41ZM78.5425 41C78.5425 43.184 79.8865 44.92 82.1825 44.92C84.4785 44.92 85.8225 43.184 85.8225 41C85.8225 38.816 84.4785 37.08 82.1825 37.08C79.8865 37.08 78.5425 38.816 78.5425 41ZM92.0337 33.72C93.4057 33.72 94.6657 34.336 95.5337 36.632L97.6617 42.316L99.8457 36.632C100.714 34.336 101.974 33.72 103.346 33.72C104.914 33.72 105.67 34.42 105.67 35.428C105.67 35.848 105.558 36.296 105.334 36.8H104.858C103.878 36.8 103.514 37.136 103.15 38.088L99.8457 46.684C99.3977 47.86 98.6137 48.28 97.6057 48.28C97.1297 48.28 96.4297 48.14 95.9537 47.916L92.2297 38.116C91.8657 37.136 91.5017 36.8 90.5217 36.8H90.0457C89.8217 36.296 89.7097 35.848 89.7097 35.428C89.7097 34.42 90.4657 33.72 92.0337 33.72ZM107.577 44.248V38.172C107.577 37.108 107.213 36.8 106.233 36.8C106.009 36.324 105.897 35.904 105.897 35.54C105.897 34.336 106.849 33.72 108.277 33.72C110.125 33.72 111.217 34.812 111.217 37.388V43.828C111.217 44.892 111.581 45.2 112.561 45.2C112.785 45.676 112.897 46.096 112.897 46.46C112.897 47.664 111.945 48.28 110.517 48.28C108.725 48.28 107.577 47.104 107.577 44.248ZM107.017 30.22C107.017 28.904 107.801 27.84 109.397 27.84C110.993 27.84 111.777 28.904 111.777 30.22C111.777 31.536 110.993 32.6 109.397 32.6C107.801 32.6 107.017 31.536 107.017 30.22ZM113.676 41C113.676 36.1 116.924 33.72 120.648 33.72C124.484 33.72 126.836 36.408 126.836 39.852C126.836 41.28 126.192 42.064 124.764 42.064H117.456C117.848 43.604 118.996 44.92 120.984 44.92C122.72 44.92 124.232 44.164 125.128 43.044C126.08 43.352 126.556 43.968 126.556 44.976C126.556 45.816 126.08 46.488 125.352 47.02C124.232 47.832 122.496 48.28 120.704 48.28C116.56 48.28 113.676 45.676 113.676 41ZM120.62 37.08C119.024 37.08 117.848 37.836 117.456 39.544H123.14C122.944 37.864 122.076 37.08 120.62 37.08Z" fill="#E7BC0F"/>
<path d="M32.6381 42.4681C33.3167 44.5835 32.1528 46.864 29.9568 47.1102C26.7856 47.4657 23.5479 47.121 20.4787 46.0799C16.1312 44.6053 12.3436 41.8087 9.65571 38.0886C6.9678 34.3686 5.51676 29.915 5.50939 25.3625C5.50201 20.8101 6.93868 16.3911 9.61463 12.7353C12.2906 9.07954 16.0693 6.37356 20.4122 5.00301C24.7551 3.63247 29.4406 3.66729 33.8009 5.10253C38.1613 6.53776 41.9739 9.30017 44.6956 12.9961C46.6155 15.6033 47.9234 18.5813 48.5446 21.7078C48.9761 23.8798 47.1672 25.6803 44.958 25.6739L35.5681 25.6469C33.7996 25.6418 32.4145 24.0733 31.3591 22.6401C30.7162 21.767 29.8155 21.1145 28.7855 20.7754C27.7555 20.4364 26.6487 20.4282 25.6228 20.7519C24.5969 21.0757 23.7043 21.7149 23.0722 22.5785C22.44 23.4421 22.1007 24.4859 22.1024 25.5613C22.1041 26.6367 22.4469 27.6888 23.0819 28.5675C23.7168 29.4463 24.6115 30.1069 25.6385 30.4553C27.3279 31.0283 29.2422 31.8819 29.7869 33.58L32.6381 42.4681Z" fill="#E7BC0F"/>
</svg>
